<svg width="60" height="61" viewBox="0 0 60 61" fill="none" xmlns="http://www.w3.org/2000/svg">
<path d="M30.0762 60.9985C29.1299 60.9985 28.3301 60.3133 28.101 59.3953C27.3706 56.4694 25.9723 53.3578 23.9062 50.0611C21.4583 46.1026 17.9687 42.4309 13.4375 39.0454C9.49647 36.0667 5.55543 34.0354 1.61441 32.9518C0.681015 32.6953 0 31.8676 0 30.8996C0 29.9505 0.654819 29.1324 1.56742 28.8718C5.43135 27.7686 9.15366 25.9775 12.7344 23.4985C16.849 20.634 20.2865 17.1964 23.0469 13.186C25.4889 9.61349 27.1652 6.08018 28.0759 2.58616C28.3145 1.67082 29.1203 0.998535 30.0663 0.998535C31.0227 0.998535 31.8342 1.68571 32.067 2.61353C32.5926 4.70816 33.414 6.85214 34.5312 9.04541C35.9376 11.7537 37.7343 14.3579 39.9219 16.8579C42.1614 19.3058 44.6616 21.5194 47.4219 23.4985C51.0291 26.0555 54.696 27.8519 58.4232 28.8877C59.3376 29.1418 60 29.9559 60 30.9048C60 31.8679 59.3175 32.6887 58.3887 32.9434C56.0262 33.5911 53.5944 34.6357 51.0939 36.0766C48.0729 37.8475 45.2604 39.9568 42.6561 42.4048C40.0521 44.8006 37.9167 47.3266 36.2499 49.9828C34.1799 53.2864 32.7801 56.422 32.0511 59.3902C31.8249 60.3109 31.0239 60.9985 30.0762 60.9985Z" fill="black"/>
</svg>
