<svg width="146" height="25" viewBox="0 0 146 25" fill="none" xmlns="http://www.w3.org/2000/svg">
<path d="M25.345 9.65889H15.662L12.6813 0.452148L9.68295 9.65889L0 9.64125L7.83102 15.3381L4.83265 24.5449L12.6637 18.848L20.4947 24.5449L17.514 15.3381L25.345 9.65889Z" fill="#FE330A"/>
<path d="M18.1845 17.4191L17.5143 15.3379L12.6816 18.8477L18.1845 17.4191Z" fill="#FE330A"/>
<path d="M55.509 9.65889H45.8261L42.8454 0.452148L39.847 9.65889L30.1641 9.64125L37.9951 15.3381L34.9967 24.5449L42.8277 18.848L50.6588 24.5449L47.678 15.3381L55.509 9.65889Z" fill="#FE330A"/>
<path d="M48.3486 17.4191L47.6784 15.3379L42.8457 18.8477L48.3486 17.4191Z" fill="#FE330A"/>
<path d="M85.6721 9.65889H75.9892L73.0085 0.452148L70.0101 9.65889L60.3271 9.64125L68.1582 15.3381L65.1598 24.5449L72.9908 18.848L80.8218 24.5449L77.8411 15.3381L85.6721 9.65889Z" fill="#FE330A"/>
<path d="M78.5117 17.4191L77.8414 15.3379L73.0088 18.8477L78.5117 17.4191Z" fill="#FE330A"/>
<path d="M115.836 9.65889H106.153L103.173 0.452148L100.174 9.65889L90.4912 9.64125L98.3222 15.3381L95.3239 24.5449L103.155 18.848L110.986 24.5449L108.005 15.3381L115.836 9.65889Z" fill="#FE330A"/>
<path d="M108.675 17.4191L108.005 15.3379L103.172 18.8477L108.675 17.4191Z" fill="#FE330A"/>
<path d="M146 9.65889H136.317L133.337 0.452148L130.338 9.65889L120.655 9.64125L128.486 15.3381L125.488 24.5449L133.319 18.848L141.15 24.5449L138.169 15.3381L146 9.65889Z" fill="#FE330A"/>
<path d="M138.84 17.4191L138.17 15.3379L133.337 18.8477L138.84 17.4191Z" fill="#FE330A"/>
</svg>
