<svg xmlns="http://www.w3.org/2000/svg" width="70" height="70" viewBox="0 0 70 70" fill="none">
  <path fill-rule="evenodd" clip-rule="evenodd" d="M0 55.4417C16.155 50.3359 19.6652 53.8457 14.5591 70C23.9937 53.8457 46.0065 53.8457 55.441 70C50.3384 53.8457 53.8489 50.3359 70 55.4417C53.8489 46.0075 53.8489 23.9961 70 14.5621C53.8489 19.6641 50.3384 16.1541 55.441 0C46.0065 16.1541 23.9937 16.1541 14.5591 0C19.6652 16.1541 16.155 19.6641 0 14.5621C16.155 23.9961 16.155 46.0075 0 55.4417ZM35 47.95C42.1522 47.95 47.95 42.1522 47.95 35C47.95 27.8479 42.1522 22.05 35 22.05C27.8479 22.05 22.05 27.8479 22.05 35C22.05 42.1522 27.8479 47.95 35 47.95Z" fill="#FE330A"/>
</svg>