<svg xmlns="http://www.w3.org/2000/svg" width="70" height="70" viewBox="0 0 70 70" fill="none">
  <path fill-rule="evenodd" clip-rule="evenodd" d="M20.5299 51.7242C20.0703 50.7306 19.2695 49.9298 18.2757 49.4699C10.5407 45.8923 4.42168 40.733 1.15547 37.639C-0.385161 36.1796 -0.385154 33.8204 1.15547 32.3609C4.42168 29.2668 10.5407 24.1076 18.2757 20.53C19.2695 20.0703 20.0703 19.2695 20.5299 18.2757C24.1076 10.5407 29.2668 4.42168 32.3609 1.15547C33.8204 -0.385159 36.1796 -0.385155 37.639 1.15547C40.733 4.42168 45.8923 10.5407 49.4699 18.2757C49.9298 19.2695 50.7306 20.0703 51.7242 20.5299C59.4594 24.1076 65.5784 29.2668 68.8445 32.3609C70.3852 33.8204 70.3852 36.1796 68.8445 37.639C65.5784 40.733 59.4594 45.8923 51.7242 49.4699C50.7306 49.9298 49.9298 50.7306 49.4699 51.7242C45.8923 59.4594 40.733 65.5784 37.639 68.8445C36.1796 70.3852 33.8204 70.3852 32.3609 68.8445C29.2668 65.5784 24.1076 59.4594 20.5299 51.7242ZM35.0001 47.8655C42.1053 47.8655 47.8655 42.1053 47.8655 35.0001C47.8655 27.8946 42.1053 22.1345 35.0001 22.1345C27.8946 22.1345 22.1346 27.8946 22.1346 35.0001C22.1346 42.1053 27.8946 47.8655 35.0001 47.8655Z" fill="#FE330A"/>
</svg>